<svg width="5490" height="1028" viewBox="0 0 5490 1028" fill="none" xmlns="http://www.w3.org/2000/svg">
<path d="M510.208 0.378058C509.197 0.677658 507.736 1.08961 506.987 1.27686C502.868 2.32545 512.604 -7.26172 253.506 251.892C117.048 388.359 5.00583 500.597 4.51901 501.271C2.94622 503.443 0.849172 507.787 0.399804 509.847C-0.536379 514.303 0.175121 519.059 2.49686 523.553C3.77006 526.062 17.326 539.694 252.345 774.73C394.458 916.852 501.632 1023.73 502.681 1024.41C507.175 1027.29 512.717 1028.38 517.697 1027.37C519.345 1027.03 521.779 1026.21 523.127 1025.57C525.411 1024.48 541.813 1008.16 774.361 775.666C940.852 609.201 1023.61 526.212 1024.58 524.752C1028.4 518.947 1028.82 511.307 1025.63 504.679C1024.55 502.394 1008.41 486.178 775.56 253.277C510.283 -12.0928 524.887 2.32545 519.757 0.790007C516.836 -0.0713405 512.492 -0.25859 510.208 0.378058ZM519.008 35.6559C520.843 36.4798 546.569 62.0581 756.124 271.665C969.087 484.643 991.294 506.926 992.155 508.91C993.84 512.58 993.466 517.074 991.256 520.445C990.62 521.344 884.494 627.702 755.413 756.754C540.877 971.23 520.506 991.49 518.633 992.276C515.45 993.587 511.893 993.512 508.822 991.977C506.688 990.928 485.605 969.919 271.444 755.705C57.5444 541.717 36.3492 520.408 35.5628 518.535C34.3645 515.689 34.3645 512.019 35.5628 509.173C36.3492 507.3 57.5444 485.991 271.256 272.19C408.8 134.561 506.763 36.8543 507.736 36.2551C511.331 34.1204 515.113 33.9332 519.008 35.6559Z" fill="white"/>
<path d="M507.324 304.771C492.757 328.215 484.931 341.472 481.149 349.112C478.415 354.654 477.329 366.451 478.939 373.192C480.924 381.431 486.167 389.033 496.24 398.209C501.557 403.077 501.408 403.04 506.8 401.467C514.327 399.295 521.891 399.482 529.568 402.103C530.879 402.515 532.639 402.89 533.5 402.927C535.035 402.927 535.297 402.74 539.492 398.808C554.545 384.764 559.002 375.102 557.204 360.496C556.193 352.258 557.242 354.392 536.945 320.2C526.834 303.123 518.334 288.93 518.072 288.668C517.735 288.293 515.6 291.476 507.324 304.771Z" fill="white"/>
<path d="M510.957 411.803C507.549 412.327 502.681 413.937 499.498 415.585C493.843 418.544 489.387 423.225 486.953 428.843L485.904 431.277H481.486H477.067V433.711V436.145H517.884H558.702V434.086V432.026H554.583C550.95 432.026 550.426 431.951 550.239 431.352C550.127 431.015 549.415 429.442 548.666 427.906C547.618 425.697 546.532 424.311 543.723 421.502C540.503 418.282 539.754 417.72 535.859 415.773C529.83 412.814 525.599 411.765 518.633 411.616C515.638 411.541 512.192 411.616 510.957 411.803Z" fill="white"/>
<path d="M223.811 428.281C221.976 428.468 220.44 428.655 220.366 428.73C220.291 428.805 233.809 451.912 250.361 480.149C272.043 517.075 280.88 531.792 281.892 532.691C287.172 537.335 293.987 541.305 299.192 542.765C301.402 543.364 302.974 543.439 316.98 543.252C325.443 543.14 334.842 543.065 337.913 543.065H343.455L360.606 578.08C370.08 597.33 377.719 613.134 377.644 613.208C377.382 613.508 349.559 607.216 349.147 606.767C348.922 606.542 346.226 600.813 343.193 594.072C339.972 586.994 337.351 581.638 336.977 581.414C335.778 580.777 328.701 579.241 324.132 578.642C319.002 577.931 311.363 577.743 310.838 578.268C310.614 578.492 315.332 586.769 323.833 601L337.201 623.395H339.261C340.384 623.395 343.605 623.657 346.376 623.994C363.002 625.904 382.887 631.746 398.765 639.349C401.536 640.659 403.82 641.708 403.895 641.67C403.932 641.596 385.845 595.382 363.639 538.945L323.308 436.333L320.912 435.733C316.268 434.572 293.687 431.052 293.276 431.427C293.238 431.502 302.6 451.762 314.171 476.479C325.705 501.196 335.142 521.868 335.142 522.43C335.142 523.254 334.842 523.553 333.531 524.153C330.311 525.576 322.335 525.688 317.167 524.377C311.363 522.917 304.734 518.61 301.364 514.116C300.428 512.843 296.084 504.866 291.778 496.365C287.434 487.864 277.997 469.363 270.77 455.245L257.701 429.592L248.526 428.992C235.906 428.131 227.705 427.906 223.811 428.281Z" fill="white"/>
<path d="M747.249 479.026L723.508 526.774H712.835C701.039 526.774 698.942 526.512 697.107 524.902C696.059 523.965 695.946 523.628 695.984 521.831C696.021 520.745 696.358 518.91 696.77 517.786C697.182 516.663 705.495 497.563 715.232 475.355C724.968 453.148 732.869 434.947 732.795 434.872C732.72 434.797 725.567 435.883 716.954 437.231L701.226 439.703L685.199 482.583C664.041 539.208 665.389 535.463 665.165 538.571C665.015 540.78 665.127 541.38 665.801 542.428C667.374 544.975 667 544.937 690.629 545.05C702.312 545.087 711.862 545.274 711.862 545.462C711.862 545.836 678.196 610.362 677.784 610.812C677.41 611.186 650.41 617.478 650.148 617.253C650.073 617.141 654.417 608.378 659.81 597.779C669.434 578.755 669.583 578.455 668.535 578.492C667.973 578.492 663.217 579.204 657.975 580.065L648.463 581.638L636.255 611.973C629.515 628.638 623.71 643.056 623.373 643.955C622.587 645.902 621.988 646.015 629.477 642.944C644.644 636.727 659.51 632.271 683.926 626.578L693.999 624.256L750.62 528.422C806.266 434.235 807.24 432.588 806.266 432.325C803.945 431.764 793.497 431.277 782.637 431.277H770.991L747.249 479.026Z" fill="white"/>
<path d="M342.781 441.838C342.893 442.325 359.632 488.613 380.003 544.75L417.001 646.801L428.385 653.617C434.639 657.399 439.807 660.395 439.882 660.321C439.957 660.246 436.736 648.411 432.692 633.956C428.685 619.538 425.39 607.441 425.39 607.104C425.39 606.056 428.086 606.58 432.13 608.377C438.945 611.448 461.489 624.144 473.434 631.559C476.58 633.544 477.067 633.731 476.88 633.02C476.805 632.57 472.498 601.449 467.331 563.85C462.163 526.25 457.819 494.979 457.669 494.38C457.332 493.107 453.288 490.223 443.364 484.306C422.581 471.835 400.225 461.948 358.921 446.931C341.096 440.452 342.519 440.901 342.781 441.838ZM393.709 477.865C403.745 481.235 427.711 493.331 431.044 496.739C431.98 497.676 432.692 500.859 441.679 544.376C446.997 570.029 451.415 591.225 451.49 591.45C451.603 591.712 451.453 591.937 451.228 591.937C450.217 591.937 417.451 578.268 417.151 577.706C416.852 577.107 387.605 478.913 387.268 477.415C387.118 476.666 387.268 476.591 388.504 476.591C389.29 476.591 391.612 477.153 393.709 477.865Z" fill="white"/>
<path d="M675.912 447.193C650.486 456.481 629.403 465.319 608.133 475.543C595.7 481.535 573.456 493.556 572.895 494.605C572.52 495.241 545.895 696.085 546.12 696.31C546.195 696.422 547.168 695.673 548.292 694.662C552.448 690.88 561.286 684.176 562.859 683.614C563.009 683.539 571.434 642.981 581.545 593.435C591.656 543.889 600.081 502.919 600.306 502.394C601.392 499.66 612.327 493.519 630.002 485.692C637.716 482.284 643.708 479.887 644.082 480.037C644.232 480.112 633.11 520.52 619.329 569.842C605.549 619.163 594.165 659.946 594.015 660.395L593.79 661.294L595.251 660.395C597.572 658.935 605.811 654.703 608.882 653.392L611.728 652.156L648.164 548.233C668.198 491.084 684.525 444.272 684.45 444.197C684.375 444.16 680.556 445.508 675.912 447.193Z" fill="white"/>
<path d="M477.067 448.691V451.874H517.884H558.702V448.691V445.508H517.884H477.067V448.691Z" fill="white"/>
<path d="M457.37 462.061C457.519 463.371 457.857 467.716 458.194 471.723C458.493 475.73 458.793 479.026 458.83 479.026C458.868 479.063 460.028 479.587 461.377 480.261C467.48 483.22 475.494 492.208 477.254 498.125C477.629 499.323 480.962 535.8 486.466 598.303C493.469 678.222 495.079 697.396 494.929 700.729C494.443 711.365 490.81 715.11 479.426 716.645L475.944 717.132V721.177V725.259H514.327H552.711V721.027V716.758L542.338 716.533C531.253 716.308 529.306 716.009 525.524 714.211C523.09 713.013 520.356 710.129 519.12 707.433C517.136 703.088 517.211 705.822 515.825 599.989C514.964 533.702 514.664 500.522 514.889 499.286C516.162 492.77 521.33 489.362 526.16 491.796C528.932 493.182 531.366 498.05 531.366 502.207C531.366 503.256 530.841 510.933 530.242 519.284C529.643 527.635 529.119 535.088 529.119 535.837V537.26H541.289H553.46L553.609 536.399C553.722 535.949 554.583 527.823 555.519 518.348C557.204 501.158 557.504 499.211 559.002 495.204C561.698 488.013 565.855 482.209 569.45 480.561L570.947 479.887L571.397 476.853C571.622 475.168 572.296 470.637 572.895 466.742L573.943 459.739H515.563H457.145L457.37 462.061Z" fill="white"/>
<path d="M476.018 737.13L476.131 741.175L514.439 741.287L552.71 741.362V737.243V733.123H514.327H475.906L476.018 737.13Z" fill="white"/>
<path d="M3227.76 134.936C3229.41 147.481 3235.33 155.87 3246 160.851C3256.56 165.832 3271.57 165.832 3282.13 160.888C3292.88 155.87 3299.44 147.107 3301.27 135.31L3301.61 133.176H3293.29H3284.98L3284.19 136.359C3282.32 144.036 3277.9 149.316 3271.46 151.563C3268.69 152.537 3263.07 152.874 3259.52 152.312C3254.61 151.451 3250.19 148.68 3247.72 144.785C3246.45 142.8 3244.99 138.344 3244.61 135.31L3244.35 133.176H3235.92H3227.54L3227.76 134.936Z" fill="white"/>
<path d="M5394.09 134.936C5395.74 147.481 5401.65 155.87 5412.33 160.851C5422.89 165.832 5437.9 165.832 5448.46 160.888C5459.21 155.87 5465.76 147.107 5467.6 135.31L5467.94 133.176H5459.62H5451.31L5450.52 136.359C5448.65 144.036 5444.23 149.316 5437.79 151.563C5435.02 152.537 5429.4 152.874 5425.84 152.312C5420.94 151.451 5416.52 148.68 5414.05 144.785C5412.78 142.8 5411.31 138.344 5410.94 135.31L5410.68 133.176H5402.25H5393.86L5394.09 134.936Z" fill="white"/>
<path d="M2829.73 176.318C2803.89 178.565 2781.84 193.695 2770.49 216.839C2764.8 228.523 2762.36 240.133 2762.36 255.637C2762.36 267.546 2763.45 275.073 2766.63 284.661C2772.93 303.835 2787.79 319.414 2805.92 325.855C2814.38 328.851 2821.34 329.937 2832.5 329.937C2847.63 329.975 2858.45 327.953 2869.5 323.159L2873.32 321.474V313.048C2873.32 308.404 2873.21 304.696 2873.06 304.771C2872.87 304.846 2870.66 305.932 2868.08 307.205C2857.44 312.411 2845.61 314.77 2832.32 314.321C2825.76 314.096 2821.83 313.46 2816.4 311.737C2801.65 307.056 2789.74 295.147 2784.27 279.605C2779.14 264.962 2779.18 244.027 2784.38 229.047C2787.42 220.396 2791.57 213.768 2798.05 207.326C2804.23 201.147 2810.45 197.252 2818.12 194.668C2833.66 189.463 2853.55 190.886 2869.16 198.339C2871.3 199.387 2873.1 200.211 2873.17 200.211C2873.25 200.211 2873.32 196.092 2873.32 191.073V181.898L2870.44 180.812C2860.29 176.917 2843.63 175.082 2829.73 176.318Z" fill="white"/>
<path d="M3594 176.093C3576.1 177.591 3562.39 183.321 3551.23 193.994C3538.91 205.754 3531.65 221.183 3529.21 240.694C3526.85 259.831 3529.29 277.77 3536.21 292.338C3544.75 310.351 3559.84 323.009 3578.38 327.728C3589.73 330.574 3603.13 330.874 3615 328.477C3643.65 322.71 3663.39 300.427 3668.1 268.557C3671.66 244.552 3667.69 221.632 3657.17 205.454C3646.98 189.762 3632.38 180.138 3613.84 176.992C3609.42 176.243 3598.38 175.756 3594 176.093ZM3611.48 192.721C3621.37 194.818 3627.81 198.264 3634.66 205.042C3643.39 213.73 3648.22 224.553 3650.43 240.282C3651.1 245.076 3651.07 261.816 3650.43 266.31C3648.14 281.552 3643.43 291.888 3634.85 300.427C3629.2 306.082 3624.22 309.19 3616.91 311.624C3610.62 313.722 3607.03 314.246 3598.3 314.208C3591.34 314.208 3590.25 314.134 3586.47 313.235C3576.88 310.988 3569.54 306.756 3562.8 299.64C3551.53 287.731 3546.1 271.066 3546.74 250.394C3547 242.604 3547.64 237.886 3549.25 231.856C3554.83 210.922 3569.62 196.204 3588.75 192.571C3593.32 191.71 3593.88 191.672 3601.11 191.785C3606.09 191.897 3608.79 192.122 3611.48 192.721Z" fill="white"/>
<path d="M3761.8 176.318C3735.96 178.565 3713.9 193.695 3702.56 216.839C3696.86 228.523 3694.43 240.133 3694.43 255.637C3694.43 267.546 3695.52 275.073 3698.7 284.661C3704.99 303.835 3719.86 319.414 3737.98 325.855C3746.44 328.851 3753.41 329.937 3764.57 329.937C3779.7 329.975 3790.52 327.953 3801.57 323.159L3805.39 321.474V313.048C3805.39 308.404 3805.27 304.696 3805.12 304.771C3804.94 304.846 3802.73 305.932 3800.14 307.205C3789.51 312.411 3777.67 314.77 3764.38 314.321C3757.83 314.096 3753.9 313.46 3748.47 311.737C3733.71 307.056 3721.8 295.147 3716.34 279.605C3711.21 264.962 3711.24 244.027 3716.45 229.047C3719.48 220.396 3723.64 213.768 3730.12 207.326C3736.3 201.147 3742.51 197.252 3750.19 194.668C3765.73 189.463 3785.61 190.886 3801.23 198.339C3803.36 199.387 3805.16 200.211 3805.24 200.211C3805.31 200.211 3805.39 196.092 3805.39 191.073V181.898L3802.5 180.812C3792.35 176.917 3775.69 175.082 3761.8 176.318Z" fill="white"/>
<path d="M4446.33 176.318C4420.5 178.565 4398.44 193.695 4387.09 216.839C4381.4 228.523 4378.97 240.133 4378.97 255.637C4378.97 267.546 4380.05 275.073 4383.24 284.661C4389.53 303.835 4404.39 319.414 4422.52 325.855C4430.98 328.851 4437.95 329.937 4449.11 329.937C4464.23 329.975 4475.06 327.953 4486.1 323.159L4489.92 321.474V313.048C4489.92 308.404 4489.81 304.696 4489.66 304.771C4489.47 304.846 4487.26 305.932 4484.68 307.205C4474.05 312.411 4462.21 314.77 4448.92 314.321C4442.36 314.096 4438.43 313.46 4433 311.737C4418.25 307.056 4406.34 295.147 4400.87 279.605C4395.74 264.962 4395.78 244.027 4400.99 229.047C4404.02 220.396 4408.18 213.768 4414.65 207.326C4420.83 201.147 4427.05 197.252 4434.73 194.668C4450.27 189.463 4470.15 190.886 4485.77 198.339C4487.9 199.387 4489.7 200.211 4489.77 200.211C4489.85 200.211 4489.92 196.092 4489.92 191.073V181.898L4487.04 180.812C4476.89 176.917 4460.23 175.082 4446.33 176.318Z" fill="white"/>
<path d="M1181.83 253.015V327.541H1190.63H1199.43V293.648V259.756H1238H1276.57V293.648V327.541H1285.37H1294.17V253.015V178.49H1285.37H1276.57V211.259V244.027H1238H1199.43V211.259V178.49H1190.63H1181.83V253.015Z" fill="white"/>
<path d="M1338.73 253.015V327.541L1349.63 327.466L1360.52 327.353L1399.24 267.433C1420.55 234.477 1438.56 206.502 1439.24 205.267C1439.91 204.031 1440.81 202.233 1441.19 201.259C1442.16 198.788 1442.8 198.9 1442.35 201.409C1442.12 202.608 1441.93 228.148 1441.82 265.449L1441.67 327.541H1450.32H1458.94V253.015V178.49H1447.81H1436.65L1398.08 238.709C1376.89 271.815 1358.69 300.389 1357.68 302.187C1356.67 303.985 1355.81 305.408 1355.73 305.333C1355.66 305.258 1355.77 301.925 1355.96 297.918C1356.14 293.873 1356.33 265.973 1356.33 234.552V178.49H1347.53H1338.73V253.015Z" fill="white"/>
<path d="M1487.25 178.939C1487.43 179.201 1501.7 195.305 1518.96 214.741C1536.23 234.14 1550.31 250.169 1550.23 250.356C1550.12 250.618 1533.91 269.006 1492.15 316.193L1482.15 327.541H1493.91H1505.67L1535.37 292.824C1551.69 273.688 1565.74 257.172 1566.6 256.049L1568.09 254.026L1568.21 290.802L1568.28 327.541H1576.52H1584.76V290.84C1584.76 269.156 1584.91 254.139 1585.1 254.139C1585.28 254.139 1586.07 255 1586.82 256.049C1588.2 257.959 1644.45 323.983 1646.7 326.342L1647.9 327.541L1659.35 327.466L1670.81 327.353L1636.81 288.78C1603.3 250.843 1602.77 250.206 1603.45 249.457C1603.82 249.046 1617.75 233.354 1634.38 214.629C1651.04 195.867 1665.05 180.1 1665.57 179.501L1666.54 178.49H1655.87H1645.24L1616.29 211.933C1600.41 230.321 1586.97 245.975 1586.44 246.761C1585.92 247.51 1585.32 248.147 1585.13 248.147C1584.91 248.147 1584.76 235.414 1584.76 213.318V178.49H1576.52H1568.28L1568.21 213.393L1568.09 248.297L1566.86 246.649C1566.19 245.712 1552.7 230.021 1536.9 211.745L1508.18 178.527L1497.58 178.49C1489.19 178.49 1487.02 178.602 1487.25 178.939Z" fill="white"/>
<path d="M1693.73 253.015V327.541H1702.53H1711.33V293.648V259.756H1749.9H1788.47V293.648V327.541H1797.27H1806.07V253.015V178.49H1797.27H1788.47V211.259V244.027H1749.9H1711.33V211.259V178.49H1702.53H1693.73V253.015Z" fill="white"/>
<path d="M1850.64 253.015V327.541H1890.14H1929.65V319.676V311.812H1898.94H1868.24V285.784V259.756H1895.2H1922.16V251.892V244.027H1895.2H1868.24V219.123V194.219H1897.26H1926.28V186.354V178.49H1888.46H1850.64V253.015Z" fill="white"/>
<path d="M1948.75 186.354V194.219H1970.09H1991.44V260.88V327.541H2000.24H2009.04V260.88V194.219H2030.57H2052.1V186.354V178.49H2000.42H1948.75V186.354Z" fill="white"/>
<path d="M2121 178.565C2120.97 178.64 2108.12 212.12 2092.43 253.015L2063.86 327.353L2073.41 327.466C2080.26 327.541 2083.03 327.428 2083.22 327.129C2083.37 326.904 2086.74 317.541 2090.71 306.344L2097.94 285.971L2129.73 286.046L2161.52 286.158L2168.04 303.385C2171.63 312.86 2175.15 322.185 2175.9 324.058L2177.25 327.541H2186.76C2192 327.541 2196.27 327.428 2196.27 327.241C2196.27 327.091 2183.39 293.611 2167.66 252.828L2139.09 178.677L2130.07 178.565C2125.09 178.527 2121 178.527 2121 178.565ZM2130.22 197.851C2131.08 202.795 2133.03 208.6 2143.62 237.473C2150.14 255.15 2155.46 269.793 2155.46 269.943C2155.46 270.092 2143.81 270.242 2129.58 270.242C2105.09 270.242 2103.7 270.205 2103.97 269.568C2104.08 269.231 2109.43 254.588 2115.84 237.099C2126.4 208.263 2129.24 199.836 2129.24 197.29C2129.24 195.942 2129.95 196.353 2130.22 197.851Z" fill="white"/>
<path d="M2223.61 253.015V327.541H2232.41H2241.21V261.067V194.593H2271.17H2301.13V186.542V178.49H2262.37H2223.61V253.015Z" fill="white"/>
<path d="M2329.59 253.015V327.541L2340.48 327.466L2351.38 327.353L2390.1 267.433C2411.41 234.477 2429.42 206.502 2430.09 205.267C2430.77 204.031 2431.67 202.233 2432.04 201.259C2433.02 198.788 2433.65 198.9 2433.2 201.409C2432.98 202.608 2432.79 228.148 2432.68 265.449L2432.53 327.541H2441.18H2449.79V253.015V178.49H2438.67H2427.51L2388.94 238.709C2367.75 271.815 2349.55 300.389 2348.53 302.187C2347.52 303.985 2346.66 305.408 2346.59 305.333C2346.51 305.258 2346.62 301.925 2346.81 297.918C2347 293.873 2347.19 265.973 2347.19 234.552V178.49H2338.39H2329.59V253.015Z" fill="white"/>
<path d="M2525.44 178.64C2525.44 179.164 2521.47 208.375 2520.19 217.438C2513.08 267.359 2507.91 292.787 2502.71 303.423C2500.27 308.404 2496.04 312.561 2492.03 313.909C2488.7 314.995 2482.82 314.246 2477.77 311.999C2477.17 311.737 2477.13 312.186 2477.2 319.901L2477.32 328.102L2479.75 328.739C2481.1 329.114 2484.17 329.638 2486.57 329.863C2502.48 331.473 2513.6 324.507 2519.86 309.04C2525.55 294.809 2530.38 267.92 2538.5 205.267L2539.89 194.406L2560.75 194.294L2581.61 194.219V260.88V327.541H2590.22H2598.83V253.015V178.49H2562.13C2541.95 178.49 2525.44 178.565 2525.44 178.64Z" fill="white"/>
<path d="M2643.4 253.053V327.578L2669.72 327.428C2697.66 327.241 2697.99 327.241 2704.96 325.331C2717.17 321.998 2726.49 314.695 2731.55 304.584C2738.77 290.053 2737.5 269.306 2728.63 257.622C2722.93 250.132 2713.83 245.039 2702 242.829C2698.29 242.155 2696.01 242.043 2679.46 241.893L2661 241.705V210.098V178.49H2652.2H2643.4V253.053ZM2693.09 257.884C2697.62 258.446 2701.63 259.569 2705.15 261.254C2707.62 262.453 2708.89 263.389 2711.14 265.673C2716.12 270.654 2717.69 275.148 2717.69 284.099C2717.69 290.428 2717.2 292.75 2714.88 297.506C2711.81 303.76 2705.56 308.441 2697.47 310.501C2693.09 311.587 2689.79 311.812 2675.52 311.812H2661V284.661V257.509H2675.52C2683.5 257.509 2691.4 257.697 2693.09 257.884Z" fill="white"/>
<path d="M2908.9 253.015V327.541H2917.7H2926.5L2926.57 290.765L2926.68 253.989L2927.84 255.524C2928.48 256.386 2942.37 272.939 2958.74 292.3L2988.47 327.503L3000.57 327.541H3012.66L3011.61 326.267C3011.05 325.556 2995.74 308.216 2977.61 287.694C2959.49 267.171 2944.62 250.244 2944.55 250.094C2944.51 249.944 2958.59 234.066 2975.81 214.779C2993.08 195.492 3007.42 179.464 3007.72 179.127C3008.17 178.527 3007.46 178.49 2997.42 178.49L2986.6 178.527L2958.14 211.671C2942.49 229.871 2929.08 245.638 2928.37 246.649C2927.66 247.66 2926.95 248.484 2926.8 248.521C2926.61 248.521 2926.5 232.755 2926.5 213.506V178.49H2917.7H2908.9V253.015Z" fill="white"/>
<path d="M3038.09 253.015V327.541L3048.99 327.466L3059.88 327.353L3098.6 267.433C3119.91 234.477 3137.92 206.502 3138.6 205.267C3139.27 204.031 3140.17 202.233 3140.55 201.259C3141.52 198.788 3142.16 198.9 3141.71 201.409C3141.48 202.608 3141.29 228.148 3141.18 265.449L3141.03 327.541H3149.68H3158.3V253.015V178.49H3147.17H3136.01L3097.44 238.709C3076.25 271.815 3058.05 300.389 3057.04 302.187C3056.03 303.985 3055.17 305.408 3055.09 305.333C3055.02 305.258 3055.13 301.925 3055.32 297.918C3055.5 293.873 3055.69 265.973 3055.69 234.552V178.49H3046.89H3038.09V253.015Z" fill="white"/>
<path d="M3203.23 253.015V327.541L3214.13 327.466L3225.03 327.353L3264.16 266.872C3286.44 232.455 3304 204.892 3304.94 202.907C3305.88 201.035 3306.74 199.462 3306.92 199.462C3307.07 199.462 3307.04 200.361 3306.85 201.409C3306.62 202.608 3306.44 228.448 3306.32 265.449L3306.18 327.541H3314.83H3323.44V253.015V178.49H3312.32H3301.16L3262.4 239.009C3241.09 272.302 3222.89 300.876 3221.99 302.487C3221.09 304.134 3220.31 305.408 3220.23 305.333C3220.16 305.258 3220.23 302.187 3220.46 298.479C3220.65 294.622 3220.83 267.77 3220.83 235.114V178.49H3212.03H3203.23V253.015Z" fill="white"/>
<path d="M3432.04 253.015V327.541H3440.84H3449.64V261.067V194.593H3479.59H3509.55V186.542V178.49H3470.79H3432.04V253.015Z" fill="white"/>
<path d="M3828.23 178.565C3828.23 178.64 3839.57 202.608 3853.47 231.856L3878.67 285.035L3877.17 288.031C3875.19 292.001 3871.67 297.88 3869.12 301.326C3864.78 307.318 3859.61 311.587 3854.74 313.31C3851.41 314.471 3846.43 314.695 3842.42 313.871C3839.39 313.272 3833.73 311.175 3832.2 310.089C3830.48 308.891 3830.44 309.003 3830.55 318.253L3830.66 326.941L3832.42 327.615C3836.65 329.188 3841.63 329.9 3848.26 329.9C3853.58 329.9 3855.08 329.788 3857.51 329.113C3871.82 325.181 3881.4 315.519 3892.41 293.836C3895.07 288.63 3933.61 202.383 3942.67 181.374L3943.9 178.49H3934.62H3925.33L3907.32 221.445C3897.39 245.113 3889.01 265.149 3888.63 266.01C3888.26 266.909 3887.84 267.621 3887.73 267.621C3887.62 267.621 3886.8 265.823 3885.93 263.576C3885.07 261.367 3876.16 241.331 3866.12 219.011L3847.93 178.49H3838.08C3832.65 178.49 3828.23 178.527 3828.23 178.565Z" fill="white"/>
<path d="M3998.46 179.314C3998.35 179.801 3998.2 182.197 3998.05 184.669C3996.29 220.584 3982.1 271.366 3964.05 306.381L3961.35 311.624L3955.47 311.737L3949.56 311.849V339.712V367.612H3957.61H3965.66V347.576V327.541H4019.21H4072.76V347.576V367.612H4080.81H4088.86V339.712V311.812H4078.75H4068.64V245.151V178.49H4033.63H3998.61L3998.46 179.314ZM4051.04 253.015V311.812H4015.65C3996.18 311.812 3980.26 311.737 3980.26 311.699C3980.26 311.624 3981.43 309.115 3982.85 306.157C3996.82 276.946 4009.32 232.867 4012.66 200.885C4012.96 197.851 4013.22 195.118 4013.22 194.781C4013.22 194.294 4015.43 194.219 4032.13 194.219H4051.04V253.015Z" fill="white"/>
<path d="M4160.76 178.565C4160.72 178.64 4147.88 212.12 4132.19 253.015L4103.62 327.353L4113.17 327.466C4120.02 327.541 4122.79 327.428 4122.98 327.129C4123.13 326.904 4126.5 317.541 4130.47 306.344L4137.69 285.971L4169.49 286.046L4201.28 286.158L4207.79 303.385C4211.39 312.86 4214.91 322.185 4215.66 324.058L4217.01 327.541H4226.52C4231.76 327.541 4236.03 327.428 4236.03 327.241C4236.03 327.091 4223.15 293.611 4207.42 252.828L4178.85 178.677L4169.82 178.565C4164.84 178.527 4160.76 178.527 4160.76 178.565ZM4169.97 197.851C4170.83 202.795 4172.78 208.6 4183.38 237.473C4189.89 255.15 4195.21 269.793 4195.21 269.943C4195.21 270.092 4183.57 270.242 4169.34 270.242C4144.85 270.242 4143.46 270.205 4143.72 269.568C4143.83 269.231 4149.19 254.588 4155.59 237.099C4166.15 208.263 4169 199.836 4169 197.29C4169 195.942 4169.71 196.353 4169.97 197.851Z" fill="white"/>
<path d="M4263.74 253.015V327.541H4272.54H4281.34V299.266V270.991H4292.69C4298.9 270.991 4305.94 270.804 4308.3 270.579C4322.08 269.306 4332.61 264.849 4340.99 256.76C4345.15 252.791 4347.47 249.72 4349.83 245.151C4353.46 238.11 4354.89 231.744 4354.89 222.681C4354.85 208.862 4351.11 199.05 4342.9 191.223C4335.34 184.032 4325.6 180.1 4312.42 178.902C4309.99 178.677 4298.49 178.49 4285.95 178.49H4263.74V253.015ZM4310.74 194.781C4320.51 196.204 4327.29 199.612 4331.37 205.192C4333.62 208.225 4334.29 209.611 4335.53 213.58C4336.43 216.614 4336.54 217.4 4336.54 223.43C4336.58 231.107 4336.13 233.242 4333.54 238.709C4329.72 246.611 4322.42 251.817 4311.82 254.176C4308.49 254.888 4306.73 255 4294.75 255.15L4281.34 255.337V224.778V194.219H4294.19C4303.36 194.219 4308.04 194.369 4310.74 194.781Z" fill="white"/>
<path d="M4510.89 186.354V194.219H4532.24H4553.58V260.88V327.541H4562.38H4571.18V260.88V194.219H4592.72H4614.25V186.354V178.49H4562.57H4510.89V186.354Z" fill="white"/>
<path d="M4642.71 252.978V327.541H4666.04C4689.14 327.541 4693.56 327.353 4699.18 326.192C4716.07 322.747 4729.17 311.175 4733.26 296.12C4734.15 292.824 4734.23 291.926 4734.23 284.848C4734.23 275.972 4733.78 273.725 4730.97 267.808C4726.18 257.846 4716.37 250.918 4704.23 248.896C4701.35 248.446 4700.83 248.034 4702.51 247.585C4704.35 247.136 4708.95 244.851 4711.61 243.091C4716.93 239.571 4721.91 233.504 4724.34 227.662C4727.98 218.936 4728.09 207.251 4724.6 199.387C4720.04 189.088 4709.89 181.935 4696.26 179.389C4693.11 178.789 4689.67 178.715 4667.72 178.565L4642.71 178.452V252.978ZM4688.84 194.781C4695.47 195.754 4700.08 197.777 4703.52 201.259C4707.53 205.267 4709.21 210.435 4708.88 217.625C4708.5 225.152 4706.71 229.497 4702.06 234.14C4698.47 237.736 4694.72 239.833 4689.22 241.293C4685.73 242.23 4685.14 242.305 4672.96 242.454L4660.31 242.604V218.411V194.219H4672.78C4681.77 194.219 4686.22 194.369 4688.84 194.781ZM4693.75 259.344C4704.12 261.629 4710.49 265.786 4713.67 272.264C4715.69 276.384 4716.25 279.08 4716.25 284.66C4716.25 290.24 4715.69 292.937 4713.67 297.019C4710.64 303.161 4705.09 307.73 4697.98 309.902C4692.62 311.549 4689.44 311.812 4674.46 311.812H4660.31V284.997V258.183L4675.21 258.371C4688.66 258.52 4690.42 258.595 4693.75 259.344Z" fill="white"/>
<path d="M4770.4 253.015V327.541H4809.91H4849.42V319.676V311.812H4818.71H4788V285.784V259.756H4814.97H4841.93V251.892V244.027H4814.97H4788V219.123V194.219H4817.03H4846.05V186.354V178.49H4808.23H4770.4V253.015Z" fill="white"/>
<path d="M4883.49 253.015V327.541H4892.29H4901.09V293.648V259.756H4939.67H4978.24V293.648V327.541H4987.04H4995.84V253.015V178.49H4987.04H4978.24V211.259V244.027H4939.67H4901.09V211.259V178.49H4892.29H4883.49V253.015Z" fill="white"/>
<path d="M5040.4 253.015V327.541H5049.2H5058V293.648V259.756H5096.57H5135.14V293.648V327.541H5143.94H5152.74V253.015V178.49H5143.94H5135.14V211.259V244.027H5096.57H5058V211.259V178.49H5049.2H5040.4V253.015Z" fill="white"/>
<path d="M5196.93 253.053V327.578L5223.25 327.428C5251.19 327.241 5251.53 327.241 5258.49 325.331C5270.21 322.11 5279.2 315.332 5284.52 305.707C5287.7 299.978 5289.8 290.99 5289.8 283.237C5289.8 270.954 5285.6 260.056 5278.3 253.39C5272.5 248.072 5265.01 244.627 5255.53 242.829C5251.83 242.155 5249.54 242.043 5232.99 241.893L5214.53 241.705V210.098V178.49H5205.73H5196.93V253.053ZM5246.62 257.884C5251.15 258.446 5255.16 259.569 5258.68 261.254C5261.15 262.453 5262.42 263.389 5264.67 265.673C5269.65 270.654 5271.22 275.148 5271.22 284.099C5271.22 290.428 5270.74 292.75 5268.42 297.506C5265.34 303.76 5259.09 308.441 5251 310.501C5246.62 311.587 5243.33 311.812 5229.06 311.812H5214.53V284.661V257.509H5229.06C5237.03 257.509 5244.94 257.697 5246.62 257.884Z" fill="white"/>
<path d="M5307.4 253.015V327.541H5316.01H5324.62V253.015V178.49H5316.01H5307.4V253.015Z" fill="white"/>
<path d="M5369.56 253.015V327.541L5380.46 327.466L5391.35 327.353L5430.49 266.872C5452.77 232.455 5470.33 204.892 5471.27 202.907C5472.2 201.035 5473.06 199.462 5473.25 199.462C5473.4 199.462 5473.36 200.361 5473.18 201.409C5472.95 202.608 5472.77 228.448 5472.65 265.449L5472.5 327.541H5481.15H5489.77V253.015V178.49H5478.64H5467.49L5428.73 239.009C5407.42 272.302 5389.22 300.876 5388.32 302.487C5387.42 304.134 5386.64 305.408 5386.56 305.333C5386.49 305.258 5386.56 302.187 5386.79 298.479C5386.97 294.622 5387.16 267.77 5387.16 235.114V178.49H5378.36H5369.56V253.015Z" fill="white"/>
<path d="M4563.81 434.872C4565.27 450.451 4576.76 462.098 4593.8 465.244C4598.48 466.143 4608.74 466.105 4613.2 465.244C4629.26 462.061 4639.94 452.286 4643.46 437.494C4643.87 435.808 4644.21 434.011 4644.21 433.412V432.4H4634.32H4624.43L4623.83 435.172C4622.97 438.917 4621.1 442.662 4618.78 445.208C4615 449.328 4611.1 451.088 4604.89 451.387C4593.58 451.949 4586.24 446.744 4584.1 436.67C4583.8 435.247 4583.54 433.711 4583.54 433.224V432.4H4573.58H4563.58L4563.81 434.872Z" fill="white"/>
<path d="M1242.3 477.602C1218.15 479.25 1197.4 491.009 1184.41 510.446C1178.01 519.958 1174.11 530.557 1172.2 543.439C1171.42 548.982 1171.3 564.037 1172.01 569.467C1174.41 587.218 1180.96 601.225 1192.16 612.31C1205.83 625.904 1224.14 632.345 1246.8 631.484C1260.8 630.997 1272.37 628.6 1281.77 624.294L1284.81 622.908V611.523V600.138L1283.79 600.85C1281.7 602.348 1274.99 605.456 1271.17 606.73C1263.09 609.464 1255.11 610.512 1245.67 610.175C1231.52 609.651 1221 605.269 1211.93 596.206C1201.56 585.795 1196.65 571.377 1197.29 553.176C1198.04 532.017 1206.32 516.326 1221.89 506.514C1233.43 499.248 1249.49 496.852 1265.33 500.035C1269.79 500.934 1276.64 503.368 1280.91 505.54L1284.81 507.562V495.466V483.407L1281.55 482.209C1271.36 478.539 1255.67 476.704 1242.3 477.602Z" fill="white"/>
<path d="M1370.75 477.602C1359.66 478.501 1350.56 480.823 1342.25 484.868C1324.28 493.631 1311.17 511.008 1306.38 532.504C1304.47 541.005 1304.13 544.188 1304.13 555.61C1304.09 566.883 1304.43 570.516 1306.23 578.268C1311.69 601.936 1328.28 620.736 1349.96 627.814C1368.01 633.731 1391.19 632.57 1407.52 624.893C1425.46 616.504 1438.45 600.176 1443.77 579.391C1446.13 570.216 1446.73 565.01 1446.73 553.176C1446.77 541.417 1446.35 537.447 1444.14 528.834C1438.3 505.952 1422.87 488.538 1402.02 481.272C1393.33 478.276 1380.75 476.778 1370.75 477.602ZM1382.81 499.099C1394.53 500.671 1403.63 505.914 1410.37 514.977C1415.35 521.643 1418.49 529.957 1420.25 540.855C1421.3 547.259 1421.19 563.175 1420.07 569.467C1418.57 578.043 1416.21 584.597 1412.46 590.701C1410.07 594.521 1404.08 600.813 1400.56 603.172C1393.03 608.228 1383.59 610.624 1373.03 610.175C1367.53 609.95 1365.5 609.613 1360.6 608.003C1350.6 604.745 1341.76 596.618 1336.18 585.57C1330.04 573.362 1328.06 554.562 1331.28 538.571C1335.06 519.733 1346.97 505.278 1362.58 500.559C1368.39 498.799 1376.44 498.2 1382.81 499.099Z" fill="white"/>
<path d="M2484.43 477.602C2473.35 478.501 2464.25 480.823 2455.93 484.868C2437.96 493.631 2424.85 511.008 2420.06 532.504C2418.15 541.005 2417.81 544.188 2417.81 555.61C2417.77 566.883 2418.11 570.516 2419.91 578.268C2425.38 601.936 2441.97 620.736 2463.65 627.814C2481.7 633.731 2504.88 632.57 2521.2 624.893C2539.14 616.504 2552.14 600.176 2557.45 579.391C2559.81 570.216 2560.41 565.01 2560.41 553.176C2560.45 541.417 2560.04 537.447 2557.83 528.834C2551.99 505.952 2536.56 488.538 2515.7 481.272C2507.01 478.276 2494.43 476.778 2484.43 477.602ZM2496.49 499.099C2508.21 500.671 2517.31 505.914 2524.05 514.977C2529.03 521.643 2532.18 529.957 2533.94 540.855C2534.98 547.259 2534.87 563.175 2533.75 569.467C2532.25 578.043 2529.89 584.597 2526.15 590.701C2523.75 594.521 2517.76 600.813 2514.24 603.172C2506.71 608.228 2497.28 610.624 2486.72 610.175C2481.21 609.95 2479.19 609.613 2474.28 608.003C2464.28 604.745 2455.45 596.618 2449.87 585.57C2443.73 573.362 2441.74 554.562 2444.96 538.571C2448.74 519.733 2460.65 505.278 2476.27 500.559C2482.07 498.799 2490.12 498.2 2496.49 499.099Z" fill="white"/>
<path d="M3440.84 477.602C3429.75 478.501 3420.65 480.823 3412.34 484.868C3394.36 493.631 3381.26 511.008 3376.46 532.504C3374.55 541.005 3374.22 544.188 3374.22 555.61C3374.18 566.883 3374.52 570.516 3376.31 578.268C3381.78 601.936 3398.37 620.736 3420.05 627.814C3438.1 633.731 3461.28 632.57 3477.61 624.893C3495.55 616.504 3508.54 600.176 3513.86 579.391C3516.22 570.216 3516.82 565.01 3516.82 553.176C3516.85 541.417 3516.44 537.447 3514.23 528.834C3508.39 505.952 3492.96 488.538 3472.1 481.272C3463.42 478.276 3450.83 476.778 3440.84 477.602ZM3452.89 499.099C3464.61 500.671 3473.71 505.914 3480.45 514.977C3485.44 521.643 3488.58 529.957 3490.34 540.855C3491.39 547.259 3491.28 563.175 3490.15 569.467C3488.66 578.043 3486.3 584.597 3482.55 590.701C3480.16 594.521 3474.16 600.813 3470.64 603.172C3463.12 608.228 3453.68 610.624 3443.12 610.175C3437.62 609.95 3435.59 609.613 3430.69 608.003C3420.69 604.745 3411.85 596.618 3406.27 585.57C3400.13 573.362 3398.15 554.562 3401.37 538.571C3405.15 519.733 3417.06 505.278 3432.67 500.559C3438.48 498.799 3446.53 498.2 3452.89 499.099Z" fill="white"/>
<path d="M4158.7 477.602C4134.55 479.25 4113.8 491.009 4100.81 510.446C4094.4 519.958 4090.51 530.557 4088.6 543.439C4087.81 548.982 4087.7 564.037 4088.41 569.467C4090.81 587.218 4097.36 601.225 4108.56 612.31C4122.23 625.904 4140.54 632.345 4163.19 631.484C4177.2 630.997 4188.77 628.6 4198.17 624.294L4201.2 622.908V611.523V600.138L4200.19 600.85C4198.1 602.348 4191.39 605.456 4187.57 606.73C4179.48 609.464 4171.51 610.512 4162.07 610.175C4147.92 609.651 4137.39 605.269 4128.33 596.206C4117.96 585.795 4113.05 571.377 4113.69 553.176C4114.44 532.017 4122.71 516.326 4138.29 506.514C4149.83 499.248 4165.89 496.852 4181.73 500.035C4186.19 500.934 4193.04 503.368 4197.31 505.54L4201.2 507.562V495.466V483.407L4197.95 482.209C4187.76 478.539 4172.07 476.704 4158.7 477.602Z" fill="white"/>
<path d="M1479.91 554.487V629.012H1539.07H1598.24V649.235V669.458H1609.29H1620.33V638.562V607.666H1610.04H1599.74V543.814V479.962H1587.38H1575.02V543.814V607.666H1539.82H1504.62V543.814V479.962H1492.26H1479.91V554.487Z" fill="white"/>
<path d="M1651.04 554.487V629.012H1664.63H1678.23L1714.33 573.774C1735 542.166 1751.32 516.812 1752.45 514.565C1753.57 512.393 1754.54 510.708 1754.66 510.783C1754.73 510.895 1754.66 512.581 1754.43 514.565C1754.17 516.925 1754.02 536.811 1754.02 573.586V629.012H1765.82H1777.61V554.487V479.962L1763.31 480.037L1749.04 480.149L1714.06 534.264C1694.82 564.037 1678.04 590.102 1676.8 592.237C1675.57 594.334 1674.48 596.019 1674.41 595.944C1674.33 595.869 1674.41 593.36 1674.63 590.401C1674.86 587.256 1675.01 562.988 1675.01 532.466V479.962H1663.02H1651.04V554.487Z" fill="white"/>
<path d="M1859.06 480.411C1858.84 481.085 1803.94 627.552 1803.64 628.338C1803.38 628.975 1804.16 629.012 1816.86 629.012H1830.3L1833.6 619.35C1835.39 614.07 1838.31 605.456 1840.04 600.251L1843.22 590.813L1872.65 590.888L1902.09 591.001L1908.75 609.913C1912.42 620.324 1915.42 628.863 1915.42 628.9C1915.42 628.975 1921.49 629.012 1928.94 629.012C1941.63 629.012 1942.42 628.975 1942.23 628.338C1942.12 628.001 1929.65 594.484 1914.56 553.925L1887.11 480.149L1873.18 480.037C1862.21 479.962 1859.21 480.037 1859.06 480.411ZM1873.63 506.551C1874.08 509.023 1877.48 519.322 1884.86 540.443L1895.42 570.778L1872.77 570.89C1860.33 570.928 1850.07 570.89 1849.96 570.815C1849.89 570.703 1854.53 556.921 1860.3 540.181C1866.06 523.441 1871.04 508.311 1871.42 506.551C1872.28 502.169 1872.39 501.795 1872.73 502.469C1872.84 502.769 1873.29 504.604 1873.63 506.551Z" fill="white"/>
<path d="M2008.18 481.16C2008.03 481.834 2007.5 485.691 2006.98 489.699C1999.97 542.99 1993.27 580.477 1988.22 594.633C1985.74 601.561 1982.04 606.542 1977.58 608.977C1975.63 610.025 1975.3 610.1 1971.4 610.063C1967.96 610.063 1966.8 609.875 1964.36 609.051C1962.79 608.49 1961.37 608.04 1961.29 608.04C1961.18 608.04 1961.1 612.759 1961.1 618.526V629.012L1962.15 629.424C1967.47 631.521 1980.28 632.121 1986.01 630.548C1997.69 627.364 2004.58 620.062 2009.56 605.531C2014.5 591.001 2019.04 566.958 2026.23 516.85C2027.27 509.622 2028.21 503.181 2028.32 502.506L2028.55 501.308H2046.67H2064.83V565.16V629.012H2077.19H2089.55V554.487V479.962H2048.96H2008.36L2008.18 481.16Z" fill="white"/>
<path d="M2131.86 554.487V629.012H2157.63C2184.03 629.012 2189.05 628.825 2195.6 627.477C2205.49 625.492 2214.44 620.698 2220.69 614.07C2226.16 608.303 2229.3 602.048 2231.14 593.323C2232.34 587.78 2232.34 577.669 2231.14 572.163C2227.17 553.626 2212.75 542.653 2189.72 540.668C2187.25 540.443 2178.79 540.256 2170.92 540.256H2156.58V510.109V479.962H2144.22H2131.86V554.487ZM2184.48 560.479C2193.32 561.752 2199.68 565.31 2202.98 570.778C2205.15 574.41 2206.09 578.23 2206.12 583.885C2206.12 587.331 2205.97 589.465 2205.52 591.188C2203.28 599.839 2197.36 605.569 2188.19 608.115C2185.45 608.864 2184.22 608.939 2170.92 609.089L2156.58 609.239V584.672V560.104H2169.24C2176.16 560.104 2183.06 560.292 2184.48 560.479Z" fill="white"/>
<path d="M2264.8 554.487V629.012H2277.16H2289.52V596.618V564.224H2324.72H2359.92V596.618V629.012H2372.28H2384.63V554.487V479.962H2372.28H2359.92V511.232V542.503H2324.72H2289.52V511.232V479.962H2277.16H2264.8V554.487Z" fill="white"/>
<path d="M2684.21 554.487V629.012H2696.57H2708.93V565.535V502.057H2744.32H2779.7V565.535V629.012H2792.25H2804.79V554.487V479.962H2744.5H2684.21V554.487Z" fill="white"/>
<path d="M2846.73 554.487V629.012H2888.67H2930.62V618.339V607.666H2901.03H2871.45V586.132V564.598H2897.1H2922.75V553.925V543.252H2897.1H2871.45V522.28V501.308H2899.35H2927.25V490.635V479.962H2886.99H2846.73V554.487Z" fill="white"/>
<path d="M3000.49 481.347C3000.38 482.134 3000.27 483.632 3000.27 484.68C3000.27 487.377 2999.29 497.488 2998.4 504.117C2994.05 535.987 2983.08 572.463 2969.34 600.438L2965.82 607.666H2959.45H2953.08V638.562V669.458H2964.13H2975.18V649.235V629.012H3025.92H3076.66V649.235V669.458H3087.71H3098.75V638.562V607.666H3088.46H3078.16V543.814V479.962H3039.44H3000.75L3000.49 481.347ZM3053.44 554.487V607.666H3022.59H2991.73L2994.54 601.599C3006.93 574.673 3018.02 534.002 3020.53 506.252L3020.98 501.308H3037.23H3053.44V554.487Z" fill="white"/>
<path d="M3168.97 480.411C3168.74 481.085 3113.85 627.552 3113.55 628.338C3113.28 628.975 3114.07 629.012 3126.77 629.012H3140.21L3143.5 619.35C3145.3 614.07 3148.22 605.456 3149.95 600.251L3153.13 590.813L3182.56 590.888L3212 591.001L3218.66 609.913C3222.33 620.324 3225.33 628.863 3225.33 628.9C3225.33 628.975 3231.39 629.012 3238.85 629.012C3251.54 629.012 3252.33 628.975 3252.14 628.338C3252.03 628.001 3239.56 594.484 3224.47 553.925L3197.02 480.149L3183.09 480.037C3172.11 479.962 3169.12 480.037 3168.97 480.411ZM3183.54 506.551C3183.98 509.023 3187.39 519.322 3194.77 540.443L3205.33 570.778L3182.67 570.89C3170.24 570.928 3159.98 570.89 3159.87 570.815C3159.79 570.703 3164.44 556.921 3170.2 540.181C3175.97 523.441 3180.95 508.311 3181.33 506.551C3182.19 502.169 3182.3 501.795 3182.64 502.469C3182.75 502.769 3183.2 504.604 3183.54 506.551Z" fill="white"/>
<path d="M3278.5 554.487V629.012H3290.86H3303.22V565.16V501.308H3332.24H3361.26V490.635V479.962H3319.88H3278.5V554.487Z" fill="white"/>
<path d="M3549.99 554.487V629.012H3562.35H3574.71V565.16V501.308H3603.73H3632.75V490.635V479.962H3591.37H3549.99V554.487Z" fill="white"/>
<path d="M3659.72 554.487V629.012H3673.31H3686.9L3723 573.774C3743.67 542.166 3760 516.812 3761.12 514.565C3762.25 512.393 3763.22 510.708 3763.33 510.783C3763.41 510.895 3763.33 512.581 3763.11 514.565C3762.85 516.925 3762.7 536.811 3762.7 573.586V629.012H3774.49H3786.29V554.487V479.962L3771.98 480.037L3757.72 480.149L3722.74 534.264C3703.49 564.037 3686.71 590.102 3685.48 592.237C3684.24 594.334 3683.16 596.019 3683.08 595.944C3683.01 595.869 3683.08 593.36 3683.31 590.401C3683.53 587.256 3683.68 562.988 3683.68 532.466V479.962H3671.7H3659.72V554.487Z" fill="white"/>
<path d="M3826.73 510.933C3826.73 536.474 3826.84 542.615 3827.29 545.686C3830.06 564.299 3842.68 575.347 3863.43 577.369C3876.84 578.642 3891.4 575.646 3907.43 568.306C3910.5 566.883 3913.16 565.722 3913.31 565.722C3913.46 565.722 3913.61 579.953 3913.61 597.367V629.012H3925.97H3938.32V554.487V479.962H3925.97H3913.61V512.768V545.536L3910.05 547.222C3901.81 551.079 3893.8 553.775 3886.23 555.311C3880.54 556.434 3870.21 556.509 3866.42 555.498C3858.67 553.326 3854.14 548.757 3852.19 541.155C3851.48 538.384 3851.45 536.923 3851.45 509.098V479.962H3839.09H3826.73V510.933Z" fill="white"/>
<path d="M3981.39 554.487V629.012H4023.33H4065.27V618.339V607.666H4035.69H4006.1V586.132V564.598H4031.75H4057.41V553.925V543.252H4031.75H4006.1V522.28V501.308H4034H4061.9V490.635V479.962H4021.64H3981.39V554.487Z" fill="white"/>
<path d="M4234.91 554.487V629.012H4247.26H4259.62V592.311C4259.62 572.126 4259.73 555.611 4259.92 555.611C4260.07 555.611 4260.78 556.509 4261.49 557.633C4262.21 558.719 4274.68 575.234 4289.2 594.296L4315.61 628.975L4331.63 629.012C4344.07 629.012 4347.62 628.9 4347.4 628.563C4347.25 628.301 4333.17 610.961 4316.09 589.99C4299.05 569.018 4285.09 551.678 4285.09 551.491C4285.09 551.266 4298.04 535.275 4313.85 515.988C4329.65 496.702 4342.72 480.673 4342.9 480.411C4343.13 480.074 4340.13 479.962 4328.45 479.962L4313.73 479.999L4287.89 513.554C4273.7 531.98 4261.64 547.746 4261.12 548.532C4260.6 549.319 4260.07 549.993 4259.92 549.993C4259.73 549.993 4259.62 534.227 4259.62 514.977V479.962H4247.26H4234.91V554.487Z" fill="white"/>
<path d="M4370.47 554.487V629.012H4384.06H4397.65L4433.75 573.774C4454.42 542.166 4470.75 516.812 4471.87 514.565C4473 512.393 4473.97 510.708 4474.08 510.783C4474.16 510.895 4474.08 512.581 4473.86 514.565C4473.6 516.925 4473.45 536.811 4473.45 573.586V629.012H4485.24H4497.04V554.487V479.962L4482.73 480.037L4468.47 480.149L4433.49 534.264C4414.24 564.037 4397.47 590.102 4396.23 592.237C4394.99 594.334 4393.91 596.019 4393.83 595.944C4393.76 595.869 4393.83 593.36 4394.06 590.401C4394.28 587.256 4394.43 562.988 4394.43 532.466V479.962H4382.45H4370.47V554.487Z" fill="white"/>
<path d="M4539.35 554.487V629.012H4552.95H4566.58L4602.86 573.474C4624.25 540.743 4639.86 516.475 4640.95 514.303C4641.96 512.281 4642.86 510.671 4642.93 510.783C4643.04 510.895 4642.93 512.693 4642.71 514.79C4642.48 517.262 4642.33 537.972 4642.33 573.811V629.012H4654.13H4665.93V554.487V479.962L4651.66 480.037L4637.35 480.149L4601.44 535.762C4581.67 566.359 4565 592.349 4564.41 593.51C4563.02 596.206 4562.38 596.693 4562.76 594.708C4562.91 593.884 4563.09 567.744 4563.21 536.586L4563.36 479.962H4551.34H4539.35V554.487Z" fill="white"/>
<path d="M2589.85 570.965V579.953H2618.31H2646.77V570.965V561.977H2618.31H2589.85V570.965Z" fill="white"/>
<path d="M1573.71 779.449C1549.56 781.096 1528.81 792.856 1515.82 812.292C1509.41 821.804 1505.52 832.403 1503.61 845.286C1502.82 850.828 1502.71 865.883 1503.42 871.313C1505.82 889.064 1512.37 903.071 1523.57 914.156C1537.24 927.75 1555.55 934.192 1578.21 933.33C1592.21 932.843 1603.78 930.447 1613.18 926.14L1616.21 924.754V913.369V901.985L1615.2 902.696C1613.11 904.194 1606.4 907.303 1602.58 908.576C1594.5 911.31 1586.52 912.358 1577.08 912.021C1562.93 911.497 1552.4 907.115 1543.34 898.052C1532.97 887.641 1528.06 873.223 1528.7 855.023C1529.45 833.863 1537.73 818.172 1553.3 808.36C1564.84 801.095 1580.9 798.698 1596.74 801.881C1601.2 802.78 1608.05 805.214 1612.32 807.386L1616.21 809.409V797.312V785.253L1612.96 784.055C1602.77 780.385 1587.08 778.55 1573.71 779.449Z" fill="white"/>
<path d="M1180.7 856.333V930.859H1194.3H1207.89L1243.99 875.62C1264.66 844.012 1280.99 818.659 1282.11 816.412C1283.23 814.24 1284.21 812.554 1284.32 812.629C1284.39 812.742 1284.32 814.427 1284.09 816.412C1283.83 818.771 1283.68 838.657 1283.68 875.433V930.859H1295.48H1307.27V856.333V781.808L1292.97 781.883L1278.7 781.995L1243.73 836.11C1224.48 865.883 1207.7 891.948 1206.47 894.083C1205.23 896.18 1204.14 897.865 1204.07 897.79C1203.99 897.715 1204.07 895.206 1204.29 892.248C1204.52 889.102 1204.67 864.834 1204.67 834.313V781.808H1192.69H1180.7V856.333Z" fill="white"/>
<path d="M1349.96 856.333V930.859H1362.32H1374.68V898.464V866.07H1409.88H1445.08V898.464V930.859H1457.44H1469.8V856.333V781.808H1457.44H1445.08V813.079V844.349H1409.88H1374.68V813.079V781.808H1362.32H1349.96V856.333Z" fill="white"/>
<path d="M1634.94 792.481V803.154H1656.28H1677.63V867.007V930.859H1689.99H1702.34V867.007V803.154H1723.88H1745.41V792.481V781.808H1690.17H1634.94V792.481Z" fill="white"/>
<path d="M1772.74 856.333V930.859H1786.34H1799.93L1836.03 875.62C1856.7 844.012 1873.03 818.659 1874.15 816.412C1875.28 814.24 1876.25 812.554 1876.36 812.629C1876.44 812.742 1876.36 814.427 1876.14 816.412C1875.87 818.771 1875.72 838.657 1875.72 875.433V930.859H1887.52H1899.32V856.333V781.808L1885.01 781.883L1870.74 781.995L1835.77 836.11C1816.52 865.883 1799.74 891.948 1798.51 894.083C1797.27 896.18 1796.19 897.865 1796.11 897.79C1796.04 897.715 1796.11 895.206 1796.34 892.248C1796.56 889.102 1796.71 864.834 1796.71 834.313V781.808H1784.73H1772.74V856.333Z" fill="white"/>
<path d="M1927.03 792.481V803.154H1948.37H1969.72V867.007V930.859H1982.08H1994.43V867.007V803.154H2015.96H2037.5V792.481V781.808H1982.26H1927.03V792.481Z" fill="white"/>
<path d="M2051.28 782.445C2051.46 782.819 2062.7 806.413 2076.22 834.912L2100.82 886.705L2098.91 890.338C2093.93 899.7 2087.71 907.265 2082.96 909.774C2076.26 913.332 2067.9 912.808 2058.92 908.239C2057.87 907.715 2056.89 907.265 2056.78 907.265C2056.67 907.265 2056.6 912.471 2056.6 918.837V930.372L2059.25 931.233C2064.05 932.731 2067.64 933.218 2074.57 933.218C2080.49 933.218 2081.5 933.143 2084.72 932.282C2099.88 928.2 2110.71 916.965 2122.84 892.735C2125.09 888.278 2172.2 783.793 2172.57 782.445C2172.76 781.845 2172.05 781.808 2159.76 781.883L2146.73 781.995L2132.73 816.075C2125.05 834.8 2117.63 853.113 2116.29 856.708C2114.94 860.303 2113.78 863.299 2113.7 863.374C2113.67 863.411 2112.84 861.164 2111.9 858.318C2110.89 855.285 2103.74 838.357 2094.68 817.573L2079.18 781.995L2065.06 781.883C2051.69 781.808 2050.98 781.845 2051.28 782.445Z" fill="white"/>
<path d="M2185.04 792.481V803.154H2206.38H2227.73V867.007V930.859H2240.09H2252.44V867.007V803.154H2273.98H2295.51V792.481V781.808H2240.27H2185.04V792.481Z" fill="white"/>
</svg>
